<svg version="1.1" id="Layer_1" xmlns="http://www.w3.org/2000/svg" xmlns:xlink="http://www.w3.org/1999/xlink" x="0px" y="0px"
	 width="100%" viewBox="0 0 668 667" enable-background="new 0 0 668 667" xml:space="preserve">
<path fill="#181617" opacity="1.000000" stroke="none" 
	d="
M669.000000,347.000000 
	C669.000000,453.965088 669.000000,560.930176 669.000000,667.947632 
	C446.440887,667.947632 223.881760,667.947632 1.000000,667.947632 
	C1.000000,560.976135 1.000000,453.951965 1.262582,346.131287 
	C5.003844,350.019836 9.637891,351.109039 15.384296,351.082062 
	C61.342407,350.866272 107.301933,350.954376 153.261032,350.946320 
	C155.092529,350.946014 156.935226,351.038757 158.753357,350.874237 
	C163.730408,350.423889 167.012604,347.256378 167.337402,342.744659 
	C167.693085,337.803986 164.572250,333.619446 159.616882,332.649170 
	C157.837585,332.300751 155.977249,332.259369 154.153839,332.258698 
	C109.361160,332.242340 64.568474,332.265320 19.775812,332.237732 
	C13.162983,332.233673 6.325914,331.254761 1.642693,337.635223 
	C1.428461,337.423492 1.214230,337.211731 0.999999,337.000000 
	C1.000000,225.035767 1.000000,113.071533 1.000000,1.053653 
	C223.559784,1.053653 446.119568,1.053653 669.000000,1.053653 
	C669.000000,112.357208 669.000000,223.714722 668.749207,335.892212 
	C665.123718,335.206360 661.769714,332.453766 658.370911,332.397186 
	C636.400085,332.031525 614.419250,332.215088 592.442139,332.315887 
	C587.928894,332.336578 583.830261,333.483368 581.861328,338.253265 
	C579.975891,342.821106 582.039978,346.270813 585.017822,349.850464 
	C586.044128,350.448181 587.038391,350.679962 588.498596,350.882019 
	C607.247131,350.880310 625.531006,351.042633 643.811890,350.877014 
	C652.349670,350.799683 661.330139,352.957611 669.000000,347.000000 
M356.998749,178.947937 
	C358.873901,176.870316 358.402008,169.505020 356.026001,166.349548 
	C356.089172,165.895798 356.152313,165.442062 356.752075,164.878952 
	C357.031067,164.568756 357.310028,164.258560 357.589020,163.948380 
	C357.124115,163.635895 356.659210,163.323410 355.983521,162.151016 
	C355.900116,160.555145 355.816711,158.959290 355.726044,157.224396 
	C339.414032,157.224396 323.497345,157.224396 307.309937,157.224396 
	C307.309937,278.300140 307.309937,399.129089 307.309937,520.521179 
	C311.750854,520.521179 315.885468,520.521179 320.348297,521.198792 
	C327.818176,521.391052 335.287689,521.607117 342.758759,521.717529 
	C343.215790,521.724243 343.685150,520.895447 344.926147,520.227356 
	C348.487061,520.227356 352.047974,520.227356 355.778076,520.227356 
	C355.972504,517.532410 356.135101,515.278625 356.726379,513.403137 
	C356.965363,513.617859 357.192078,513.849976 357.452972,514.033508 
	C357.509369,514.073181 357.801025,513.919800 357.795563,513.885925 
	C357.313904,510.926666 356.813751,507.970398 356.104828,504.270782 
	C356.179871,503.509369 356.254883,502.747986 357.110474,501.926453 
	C360.174957,498.721954 359.787262,490.931366 356.156921,486.194031 
	C356.232910,484.791412 356.308899,483.388824 357.163025,481.924927 
	C357.773865,480.098541 358.910248,478.274109 358.917084,476.445465 
	C359.027710,446.857574 358.994843,417.269104 358.994690,387.680786 
	C358.994568,364.353668 359.011169,341.026520 358.964844,317.699493 
	C358.960999,315.754425 359.936310,313.005096 356.109802,312.345428 
	C356.179779,311.892273 356.249786,311.439117 357.026154,310.736298 
	C357.680695,307.404144 358.868256,304.077271 358.901459,300.738922 
	C359.086548,282.110260 359.044037,263.478394 358.880402,244.849350 
	C358.869110,243.564545 357.241516,242.293945 356.152313,240.147079 
	C356.223328,237.492416 356.294342,234.837769 357.222107,231.995956 
	C360.181793,228.314697 359.756195,223.630615 356.106293,221.170334 
	C356.177124,219.442459 356.247955,217.714584 357.097809,215.930069 
	C357.636169,215.608063 358.658264,215.259399 358.642181,214.967911 
	C358.227783,207.448090 357.710510,199.933853 357.165070,192.421997 
	C357.153717,192.265701 356.599457,192.148834 356.091492,191.349442 
	C356.157043,190.895355 356.222626,190.441269 357.044159,189.935806 
	C360.075653,187.024994 359.814575,184.651382 356.070740,182.223618 
	C356.143829,181.144775 356.216949,180.065948 356.998749,178.947937 
M148.929504,61.437962 
	C70.496315,116.286407 23.845196,191.179703 6.443875,285.718018 
	C19.690018,285.718018 31.660892,285.718018 43.631767,285.718018 
	C44.298157,285.718018 45.207836,285.996002 45.586071,285.665680 
	C46.797840,284.607422 48.367363,283.494965 48.799274,282.095001 
	C50.068928,277.979706 50.786297,273.697937 51.843853,269.512665 
	C69.001579,201.611374 104.333183,145.262817 160.583008,103.259346 
	C225.051865,55.118462 297.940765,35.953815 377.611877,47.439068 
	C459.036072,59.177036 523.491028,100.290817 571.674133,166.680710 
	C596.804199,201.306641 613.144287,240.032074 621.864868,281.921021 
	C622.460449,284.781952 623.454102,285.818817 626.387024,285.719452 
	C632.878479,285.499512 639.380920,285.595673 645.878906,285.580170 
	C651.479431,285.566803 657.080017,285.577362 663.087402,285.577362 
	C662.928223,283.171997 663.070312,281.478790 662.674072,279.922668 
	C658.368530,263.013306 655.208252,245.689774 649.403320,229.305496 
	C620.911621,148.888031 569.965393,86.727707 495.129272,45.260265 
	C434.495300,11.662361 369.323730,-2.246118 300.145630,5.219349 
	C245.330948,11.134766 195.276276,30.392685 148.929504,61.437962 
M167.417358,618.085388 
	C174.005981,621.645691 180.509476,625.375183 187.196487,628.739990 
	C249.002045,659.839722 314.245483,670.530823 382.663605,660.657654 
	C433.147888,653.372375 479.866180,635.479370 522.021423,606.804199 
	C592.434692,558.907043 639.258484,494.098511 659.478210,410.845886 
	C661.374207,403.039337 662.525818,395.052032 664.106750,386.706848 
	C650.244873,386.706848 637.292419,386.706848 623.997192,386.706848 
	C608.942261,457.084473 573.242554,515.064636 516.848572,559.777588 
	C460.039673,604.819519 394.650299,625.222839 322.475220,622.720459 
	C263.815125,620.686584 210.453278,601.544373 163.111679,567.041992 
	C101.355446,522.034302 62.434006,461.762268 46.704239,386.717651 
	C33.258293,386.717651 20.187521,386.717651 6.849446,386.717651 
	C6.997350,388.664307 6.994905,390.326355 7.265312,391.942780 
	C13.587786,429.736938 26.371908,465.254456 46.097713,498.062317 
	C76.175789,548.087952 116.194817,588.288025 167.417358,618.085388 
M481.401978,311.009125 
	C471.179169,317.325500 459.925690,319.795197 448.054565,319.815582 
	C427.724548,319.850525 407.394348,319.813904 387.064240,319.807495 
	C385.139465,319.806885 383.214691,319.807373 381.275146,319.807373 
	C381.275146,335.915588 381.275146,351.312531 381.275146,366.875732 
	C387.243256,366.875732 392.934387,367.333069 398.514343,366.741577 
	C403.652405,366.196899 406.274872,368.367950 408.831482,372.421844 
	C432.704803,410.276917 456.736481,448.032166 480.781921,485.778351 
	C481.487000,486.885162 482.842072,488.333923 483.905670,488.343536 
	C501.513031,488.502869 519.122253,488.456940 537.872437,488.456940 
	C512.129150,447.777679 487.004120,408.075348 461.616333,367.957855 
	C463.928101,367.582245 465.541138,367.256042 467.170044,367.064789 
	C514.091919,361.556061 552.654846,321.255890 555.917480,274.303467 
	C560.181824,212.935730 515.779541,161.523361 454.364075,157.917725 
	C430.278931,156.503708 406.061096,157.347855 381.903534,157.190826 
	C381.643158,157.189148 381.380371,157.555405 381.221039,157.673828 
	C381.221039,173.528198 381.221039,189.301483 381.221039,205.619080 
	C383.451935,205.619080 385.414185,205.611923 387.376373,205.620193 
	C408.370483,205.708649 429.378845,205.346710 450.355042,206.006439 
	C475.579376,206.799774 496.926300,223.680801 504.086243,247.406433 
	C511.404633,271.657196 503.208832,295.138458 481.401978,311.009125 
M259.701019,250.500183 
	C259.701019,219.431641 259.701019,188.363083 259.701019,157.340790 
	C242.555847,157.340790 226.476486,157.340790 210.097519,157.340790 
	C210.097519,160.503113 210.098083,163.311783 210.097427,166.120453 
	C210.078644,246.772842 210.093597,327.425293 209.960693,408.077515 
	C209.952301,413.165405 209.443100,418.437897 208.051132,423.305450 
	C202.539200,442.579742 180.134506,448.953766 164.956924,435.812622 
	C157.102570,429.012024 153.341095,420.041290 152.039764,410.062714 
	C151.037033,402.373901 150.820312,394.582550 150.242859,386.683167 
	C131.243164,386.683167 112.338875,386.683167 92.755501,386.683167 
	C93.890907,394.026917 94.625099,400.968079 96.073631,407.756836 
	C101.682617,434.044281 113.206894,456.987549 134.645126,474.089691 
	C166.261078,499.311005 213.055115,496.170074 239.820816,467.070862 
	C254.026062,451.627197 259.275391,432.907135 259.351868,412.467102 
	C259.552643,358.811798 259.594971,305.155884 259.701019,250.500183 
M388.844971,567.487366 
	C389.489990,575.024963 393.358093,577.755005 401.196075,575.718018 
	C429.628540,568.328613 455.754822,555.961853 479.560608,538.767761 
	C481.035736,537.702332 481.630981,535.418640 483.069153,532.960815 
	C473.295380,532.960815 465.005981,532.897888 456.719421,533.021790 
	C455.309692,533.042847 453.790039,533.646423 452.526947,534.350220 
	C434.468750,544.412292 415.706970,552.762573 395.673584,558.098450 
	C391.373444,559.243835 388.767944,561.907166 388.844971,567.487366 
M226.349670,539.144348 
	C214.341110,529.985352 200.568237,533.145142 186.917709,533.533936 
	C187.829636,535.416016 188.896515,536.983582 190.325836,538.077576 
	C213.660370,555.938416 240.113846,567.431946 268.079529,575.687012 
	C275.088043,577.755798 280.230438,572.469849 278.854065,565.259644 
	C277.961334,560.583130 274.644409,558.606628 270.489105,556.982971 
	C255.940521,551.298279 241.506729,545.319946 226.349670,539.144348 
M162.560822,156.727798 
	C158.111633,155.194046 154.804245,156.943359 152.133942,160.406662 
	C147.772873,166.062866 143.470398,171.764389 139.091415,177.406616 
	C130.839188,188.039429 122.456078,198.572189 114.313156,209.287704 
	C109.744759,215.299393 111.746925,222.788208 118.296150,224.686615 
	C123.091873,226.076736 126.713844,223.768921 129.563446,220.130264 
	C141.966980,204.292328 154.353790,188.441071 166.685425,172.547134 
	C171.533844,166.298141 170.344711,161.142670 162.560822,156.727798 
M142.499832,280.958344 
	C147.991196,280.952881 153.482666,280.964996 158.973923,280.937653 
	C166.189499,280.901733 170.004974,277.950623 170.071396,272.397583 
	C170.144989,266.245636 166.568954,263.049408 159.190308,263.026947 
	C138.389923,262.963623 117.589157,262.964233 96.788719,263.015015 
	C90.076408,263.031433 86.063614,266.586365 86.087624,272.189240 
	C86.111336,277.721313 90.191360,281.017365 97.070328,281.013458 
	C111.880203,281.005066 126.690056,280.977844 142.499832,280.958344 
M389.241577,96.290482 
	C388.110138,104.536377 389.936554,106.988846 397.544861,109.574265 
	C408.713165,113.369446 420.183411,116.703522 430.686279,121.922134 
	C443.991638,128.533279 457.307709,123.897873 471.788147,125.233215 
	C470.485840,123.650879 470.191772,123.094765 469.734283,122.766335 
	C448.342102,107.409126 424.364014,97.778763 399.091888,91.100708 
	C394.986542,90.015892 391.506775,91.361862 389.241577,96.290482 
M206.648682,118.165916 
	C203.920074,120.016312 201.191467,121.866707 198.462845,123.717102 
	C198.650909,124.280792 198.838959,124.844475 199.027023,125.408165 
	C207.618149,125.408165 216.211304,125.512848 224.799255,125.347404 
	C227.545761,125.294495 230.423538,124.932961 232.993149,124.016792 
	C246.138687,119.329849 259.190338,114.380402 272.301880,109.596886 
	C277.994049,107.520195 280.660248,102.673683 279.001038,97.050606 
	C277.438751,91.756065 273.485626,89.917313 267.034821,91.777191 
	C245.987274,97.845543 225.993942,106.354584 206.648682,118.165916 
M579.874939,386.406250 
	C580.592957,382.657043 581.692444,378.932281 581.934387,375.152618 
	C582.251282,370.202179 578.874756,367.589020 574.567444,366.412170 
	C570.375183,365.266754 566.997803,366.888062 564.994446,370.766846 
	C564.097473,372.503448 563.509277,374.445465 563.058960,376.359711 
	C559.154724,392.957306 555.208801,409.546997 551.584473,426.206299 
	C551.122559,428.329437 551.895386,431.162476 553.049255,433.098785 
	C555.096985,436.535278 558.652710,437.767273 562.591919,436.896912 
	C566.750244,435.978210 569.040039,433.070740 569.984558,429.014496 
	C573.228027,415.085541 576.473267,401.157013 579.874939,386.406250 
M452.884766,252.517136 
	C450.461273,251.673492 448.053284,250.157974 445.611664,250.101746 
	C434.659943,249.849518 423.698364,249.965591 412.740997,250.043381 
	C406.383698,250.088516 402.980316,253.149155 402.861328,258.674561 
	C402.741791,264.224426 406.562622,267.953278 412.685974,267.993988 
	C423.477295,268.065796 434.269806,268.053040 445.061279,267.990967 
	C454.862549,267.934631 458.271271,261.783722 452.884766,252.517136 
M325.024536,110.610497 
	C326.057190,111.139030 327.061310,111.735054 328.126984,112.185402 
	C336.515564,115.730354 345.287292,112.107964 349.107391,103.547081 
	C352.511108,95.919304 348.995117,86.592796 341.311096,82.866890 
	C334.000061,79.321854 325.381470,81.430321 320.918915,87.855591 
	C315.981781,94.964203 317.309235,103.234688 325.024536,110.610497 
M347.196259,584.559326 
	C352.251251,576.059509 350.874115,567.080933 343.736725,562.003906 
	C336.518890,556.869690 326.567261,558.415283 321.080109,565.522705 
	C316.087189,571.989990 317.466461,581.576050 324.219635,587.342712 
	C330.916962,593.061707 340.167450,592.178833 347.196259,584.559326 
z"/>
<path fill="#F8F7F7" opacity="1.000000" stroke="none" 
	d="
M0.999999,337.449982 
	C1.214230,337.211731 1.428461,337.423492 1.642693,337.635223 
	C6.325914,331.254761 13.162983,332.233673 19.775812,332.237732 
	C64.568474,332.265320 109.361160,332.242340 154.153839,332.258698 
	C155.977249,332.259369 157.837585,332.300751 159.616882,332.649170 
	C164.572250,333.619446 167.693085,337.803986 167.337402,342.744659 
	C167.012604,347.256378 163.730408,350.423889 158.753357,350.874237 
	C156.935226,351.038757 155.092529,350.946014 153.261032,350.946320 
	C107.301933,350.954376 61.342407,350.866272 15.384296,351.082062 
	C9.637891,351.109039 5.003844,350.019836 1.262582,345.667419 
	C1.000000,343.299988 1.000000,340.599976 0.999999,337.449982 
z"/>
<path fill="#F8F6F7" opacity="1.000000" stroke="none" 
	d="
M669.000000,346.541931 
	C661.330139,352.957611 652.349670,350.799683 643.811890,350.877014 
	C625.531006,351.042633 607.247131,350.880310 588.257507,350.640564 
	C586.695618,350.114014 585.840698,349.799255 584.985779,349.484497 
	C582.039978,346.270813 579.975891,342.821106 581.861328,338.253265 
	C583.830261,333.483368 587.928894,332.336578 592.442139,332.315887 
	C614.419250,332.215088 636.400085,332.031525 658.370911,332.397186 
	C661.769714,332.453766 665.123718,335.206360 668.749207,336.356079 
	C669.000000,339.361298 669.000000,342.722565 669.000000,346.541931 
z"/>
<path fill="#FBFBFB" opacity="1.000000" stroke="none" 
	d="
M149.237152,61.248665 
	C195.276276,30.392685 245.330948,11.134766 300.145630,5.219349 
	C369.323730,-2.246118 434.495300,11.662361 495.129272,45.260265 
	C569.965393,86.727707 620.911621,148.888031 649.403320,229.305496 
	C655.208252,245.689774 658.368530,263.013306 662.674072,279.922668 
	C663.070312,281.478790 662.928223,283.171997 663.087402,285.577362 
	C657.080017,285.577362 651.479431,285.566803 645.878906,285.580170 
	C639.380920,285.595673 632.878479,285.499512 626.387024,285.719452 
	C623.454102,285.818817 622.460449,284.781952 621.864868,281.921021 
	C613.144287,240.032074 596.804199,201.306641 571.674133,166.680710 
	C523.491028,100.290817 459.036072,59.177036 377.611877,47.439068 
	C297.940765,35.953815 225.051865,55.118462 160.583008,103.259346 
	C104.333183,145.262817 69.001579,201.611374 51.843853,269.512665 
	C50.786297,273.697937 50.068928,277.979706 48.799274,282.095001 
	C48.367363,283.494965 46.797840,284.607422 45.586071,285.665680 
	C45.207836,285.996002 44.298157,285.718018 43.631767,285.718018 
	C31.660892,285.718018 19.690018,285.718018 6.443875,285.718018 
	C23.845196,191.179703 70.496315,116.286407 149.237152,61.248665 
z"/>
<path fill="#FCFBFC" opacity="1.000000" stroke="none" 
	d="
M167.092178,617.917480 
	C116.194817,588.288025 76.175789,548.087952 46.097713,498.062317 
	C26.371908,465.254456 13.587786,429.736938 7.265312,391.942780 
	C6.994905,390.326355 6.997350,388.664307 6.849446,386.717651 
	C20.187521,386.717651 33.258293,386.717651 46.704239,386.717651 
	C62.434006,461.762268 101.355446,522.034302 163.111679,567.041992 
	C210.453278,601.544373 263.815125,620.686584 322.475220,622.720459 
	C394.650299,625.222839 460.039673,604.819519 516.848572,559.777588 
	C573.242554,515.064636 608.942261,457.084473 623.997192,386.706848 
	C637.292419,386.706848 650.244873,386.706848 664.106750,386.706848 
	C662.525818,395.052032 661.374207,403.039337 659.478210,410.845886 
	C639.258484,494.098511 592.434692,558.907043 522.021423,606.804199 
	C479.866180,635.479370 433.147888,653.372375 382.663605,660.657654 
	C314.245483,670.530823 249.002045,659.839722 187.196487,628.739990 
	C180.509476,625.375183 174.005981,621.645691 167.092178,617.917480 
z"/>
<path fill="#FCFCFC" opacity="1.000000" stroke="none" 
	d="
M481.711060,310.817719 
	C503.208832,295.138458 511.404633,271.657196 504.086243,247.406433 
	C496.926300,223.680801 475.579376,206.799774 450.355042,206.006439 
	C429.378845,205.346710 408.370483,205.708649 387.376373,205.620193 
	C385.414185,205.611923 383.451935,205.619080 381.221039,205.619080 
	C381.221039,189.301483 381.221039,173.528198 381.221039,157.673828 
	C381.380371,157.555405 381.643158,157.189148 381.903534,157.190826 
	C406.061096,157.347855 430.278931,156.503708 454.364075,157.917725 
	C515.779541,161.523361 560.181824,212.935730 555.917480,274.303467 
	C552.654846,321.255890 514.091919,361.556061 467.170044,367.064789 
	C465.541138,367.256042 463.928101,367.582245 461.616333,367.957855 
	C487.004120,408.075348 512.129150,447.777679 537.872437,488.456940 
	C519.122253,488.456940 501.513031,488.502869 483.905670,488.343536 
	C482.842072,488.333923 481.487000,486.885162 480.781921,485.778351 
	C456.736481,448.032166 432.704803,410.276917 408.831482,372.421844 
	C406.274872,368.367950 403.652405,366.196899 398.514343,366.741577 
	C392.934387,367.333069 387.243256,366.875732 381.275146,366.875732 
	C381.275146,351.312531 381.275146,335.915588 381.275146,319.807373 
	C383.214691,319.807373 385.139465,319.806885 387.064240,319.807495 
	C407.394348,319.813904 427.724548,319.850525 448.054565,319.815582 
	C459.925690,319.795197 471.179169,317.325500 481.711060,310.817719 
z"/>
<path fill="#FBFBFB" opacity="1.000000" stroke="none" 
	d="
M259.700714,251.000198 
	C259.594971,305.155884 259.552643,358.811798 259.351868,412.467102 
	C259.275391,432.907135 254.026062,451.627197 239.820816,467.070862 
	C213.055115,496.170074 166.261078,499.311005 134.645126,474.089691 
	C113.206894,456.987549 101.682617,434.044281 96.073631,407.756836 
	C94.625099,400.968079 93.890907,394.026917 92.755501,386.683167 
	C112.338875,386.683167 131.243164,386.683167 150.242859,386.683167 
	C150.820312,394.582550 151.037033,402.373901 152.039764,410.062714 
	C153.341095,420.041290 157.102570,429.012024 164.956924,435.812622 
	C180.134506,448.953766 202.539200,442.579742 208.051132,423.305450 
	C209.443100,418.437897 209.952301,413.165405 209.960693,408.077515 
	C210.093597,327.425293 210.078644,246.772842 210.097427,166.120453 
	C210.098083,163.311783 210.097519,160.503113 210.097519,157.340790 
	C226.476486,157.340790 242.555847,157.340790 259.701019,157.340790 
	C259.701019,188.363083 259.701019,219.431641 259.700714,251.000198 
z"/>
<path fill="#FDFDFD" opacity="1.000000" stroke="none" 
	d="
M356.215485,164.988312 
	C356.152313,165.442062 356.089172,165.895798 356.045654,167.134033 
	C356.140228,171.608032 356.215149,175.297577 356.290039,178.987106 
	C356.216949,180.065948 356.143829,181.144775 356.086273,183.046921 
	C356.163940,185.909210 356.226074,187.948196 356.288177,189.987183 
	C356.222626,190.441269 356.157043,190.895355 356.105286,192.134766 
	C356.185638,200.608948 356.252228,208.297836 356.318817,215.986710 
	C356.247955,217.714584 356.177124,219.442459 356.119659,222.023911 
	C356.210449,225.979355 356.287903,229.081238 356.365356,232.183105 
	C356.294342,234.837769 356.223328,237.492416 356.164795,240.977234 
	C356.224762,264.866913 356.272247,287.926453 356.319763,310.985962 
	C356.249786,311.439117 356.179779,311.892273 356.120026,313.139771 
	C356.137756,350.175049 356.120728,386.416046 356.162445,422.656982 
	C356.185211,442.433441 356.307495,462.209808 356.384888,481.986206 
	C356.308899,483.388824 356.232910,484.791412 356.165710,486.955566 
	C356.226288,492.473602 356.278076,497.230103 356.329895,501.986572 
	C356.254883,502.747986 356.179871,503.509369 356.115417,505.078796 
	C356.183228,508.266144 356.240479,510.645447 356.297729,513.024780 
	C356.135101,515.278625 355.972504,517.532410 355.778076,520.227356 
	C352.047974,520.227356 348.487061,520.227356 344.108765,520.244202 
	C335.534302,520.347717 327.777222,520.434448 320.020111,520.521179 
	C315.885468,520.521179 311.750854,520.521179 307.309937,520.521179 
	C307.309937,399.129089 307.309937,278.300140 307.309937,157.224396 
	C323.497345,157.224396 339.414032,157.224396 355.726044,157.224396 
	C355.816711,158.959290 355.900116,160.555145 356.007507,162.907745 
	C356.092834,164.105743 356.154175,164.547028 356.215485,164.988312 
z"/>
<path fill="#F9F9F9" opacity="1.000000" stroke="none" 
	d="
M388.857849,567.064636 
	C388.767944,561.907166 391.373444,559.243835 395.673584,558.098450 
	C415.706970,552.762573 434.468750,544.412292 452.526947,534.350220 
	C453.790039,533.646423 455.309692,533.042847 456.719421,533.021790 
	C465.005981,532.897888 473.295380,532.960815 483.069153,532.960815 
	C481.630981,535.418640 481.035736,537.702332 479.560608,538.767761 
	C455.754822,555.961853 429.628540,568.328613 401.196075,575.718018 
	C393.358093,577.755005 389.489990,575.024963 388.857849,567.064636 
z"/>
<path fill="#F8F8F8" opacity="1.000000" stroke="none" 
	d="
M226.689514,539.298706 
	C241.506729,545.319946 255.940521,551.298279 270.489105,556.982971 
	C274.644409,558.606628 277.961334,560.583130 278.854065,565.259644 
	C280.230438,572.469849 275.088043,577.755798 268.079529,575.687012 
	C240.113846,567.431946 213.660370,555.938416 190.325836,538.077576 
	C188.896515,536.983582 187.829636,535.416016 186.917709,533.533936 
	C200.568237,533.145142 214.341110,529.985352 226.689514,539.298706 
z"/>
<path fill="#F8F8F9" opacity="1.000000" stroke="none" 
	d="
M162.923950,156.848145 
	C170.344711,161.142670 171.533844,166.298141 166.685425,172.547134 
	C154.353790,188.441071 141.966980,204.292328 129.563446,220.130264 
	C126.713844,223.768921 123.091873,226.076736 118.296150,224.686615 
	C111.746925,222.788208 109.744759,215.299393 114.313156,209.287704 
	C122.456078,198.572189 130.839188,188.039429 139.091415,177.406616 
	C143.470398,171.764389 147.772873,166.062866 152.133942,160.406662 
	C154.804245,156.943359 158.111633,155.194046 162.923950,156.848145 
z"/>
<path fill="#FAFAFA" opacity="1.000000" stroke="none" 
	d="
M141.999878,280.958313 
	C126.690056,280.977844 111.880203,281.005066 97.070328,281.013458 
	C90.191360,281.017365 86.111336,277.721313 86.087624,272.189240 
	C86.063614,266.586365 90.076408,263.031433 96.788719,263.015015 
	C117.589157,262.964233 138.389923,262.963623 159.190308,263.026947 
	C166.568954,263.049408 170.144989,266.245636 170.071396,272.397583 
	C170.004974,277.950623 166.189499,280.901733 158.973923,280.937653 
	C153.482666,280.964996 147.991196,280.952881 141.999878,280.958313 
z"/>
<path fill="#F8F7F8" opacity="1.000000" stroke="none" 
	d="
M389.452759,95.939278 
	C391.506775,91.361862 394.986542,90.015892 399.091888,91.100708 
	C424.364014,97.778763 448.342102,107.409126 469.734283,122.766335 
	C470.191772,123.094765 470.485840,123.650879 471.788147,125.233215 
	C457.307709,123.897873 443.991638,128.533279 430.686279,121.922134 
	C420.183411,116.703522 408.713165,113.369446 397.544861,109.574265 
	C389.936554,106.988846 388.110138,104.536377 389.452759,95.939278 
z"/>
<path fill="#F8F8F8" opacity="1.000000" stroke="none" 
	d="
M206.980530,118.010208 
	C225.993942,106.354584 245.987274,97.845543 267.034821,91.777191 
	C273.485626,89.917313 277.438751,91.756065 279.001038,97.050606 
	C280.660248,102.673683 277.994049,107.520195 272.301880,109.596886 
	C259.190338,114.380402 246.138687,119.329849 232.993149,124.016792 
	C230.423538,124.932961 227.545761,125.294495 224.799255,125.347404 
	C216.211304,125.512848 207.618149,125.408165 199.027023,125.408165 
	C198.838959,124.844475 198.650909,124.280792 198.462845,123.717102 
	C201.191467,121.866707 203.920074,120.016312 206.980530,118.010208 
z"/>
<path fill="#F9F8F9" opacity="1.000000" stroke="none" 
	d="
M579.796387,386.817322 
	C576.473267,401.157013 573.228027,415.085541 569.984558,429.014496 
	C569.040039,433.070740 566.750244,435.978210 562.591919,436.896912 
	C558.652710,437.767273 555.096985,436.535278 553.049255,433.098785 
	C551.895386,431.162476 551.122559,428.329437 551.584473,426.206299 
	C555.208801,409.546997 559.154724,392.957306 563.058960,376.359711 
	C563.509277,374.445465 564.097473,372.503448 564.994446,370.766846 
	C566.997803,366.888062 570.375183,365.266754 574.567444,366.412170 
	C578.874756,367.589020 582.251282,370.202179 581.934387,375.152618 
	C581.692444,378.932281 580.592957,382.657043 579.796387,386.817322 
z"/>
<path fill="#F9F9F9" opacity="1.000000" stroke="none" 
	d="
M453.132874,252.815765 
	C458.271271,261.783722 454.862549,267.934631 445.061279,267.990967 
	C434.269806,268.053040 423.477295,268.065796 412.685974,267.993988 
	C406.562622,267.953278 402.741791,264.224426 402.861328,258.674561 
	C402.980316,253.149155 406.383698,250.088516 412.740997,250.043381 
	C423.698364,249.965591 434.659943,249.849518 445.611664,250.101746 
	C448.053284,250.157974 450.461273,251.673492 453.132874,252.815765 
z"/>
<path fill="#F8F8F9" opacity="1.000000" stroke="none" 
	d="
M324.756897,110.355164 
	C317.309235,103.234688 315.981781,94.964203 320.918915,87.855591 
	C325.381470,81.430321 334.000061,79.321854 341.311096,82.866890 
	C348.995117,86.592796 352.511108,95.919304 349.107391,103.547081 
	C345.287292,112.107964 336.515564,115.730354 328.126984,112.185402 
	C327.061310,111.735054 326.057190,111.139030 324.756897,110.355164 
z"/>
<path fill="#F9F8F9" opacity="1.000000" stroke="none" 
	d="
M346.996246,584.873657 
	C340.167450,592.178833 330.916962,593.061707 324.219635,587.342712 
	C317.466461,581.576050 316.087189,571.989990 321.080109,565.522705 
	C326.567261,558.415283 336.518890,556.869690 343.736725,562.003906 
	C350.874115,567.080933 352.251251,576.059509 346.996246,584.873657 
z"/>
<path fill="#0C0A0B" opacity="1.000000" stroke="none" 
	d="
M356.773956,481.955566 
	C356.307495,462.209808 356.185211,442.433441 356.162445,422.656982 
	C356.120728,386.416046 356.137756,350.175049 356.217438,313.473450 
	C359.936310,313.005096 358.960999,315.754425 358.964844,317.699493 
	C359.011169,341.026520 358.994568,364.353668 358.994690,387.680786 
	C358.994843,417.269104 359.027710,446.857574 358.917084,476.445465 
	C358.910248,478.274109 357.773865,480.098541 356.773956,481.955566 
z"/>
<path fill="#0C0A0B" opacity="1.000000" stroke="none" 
	d="
M356.672974,310.861145 
	C356.272247,287.926453 356.224762,264.866913 356.271423,241.412064 
	C357.241516,242.293945 358.869110,243.564545 358.880402,244.849350 
	C359.044037,263.478394 359.086548,282.110260 358.901459,300.738922 
	C358.868256,304.077271 357.680695,307.404144 356.672974,310.861145 
z"/>
<path fill="#0C0A0B" opacity="1.000000" stroke="none" 
	d="
M356.708313,215.958389 
	C356.252228,208.297836 356.185638,200.608948 356.208740,192.466827 
	C356.599457,192.148834 357.153717,192.265701 357.165070,192.421997 
	C357.710510,199.933853 358.227783,207.448090 358.642181,214.967911 
	C358.658264,215.259399 357.636169,215.608063 356.708313,215.958389 
z"/>
<path fill="#0A0A09" opacity="1.000000" stroke="none" 
	d="
M320.184204,520.859985 
	C327.777222,520.434448 335.534302,520.347717 343.720093,520.358276 
	C343.685150,520.895447 343.215790,521.724243 342.758759,521.717529 
	C335.287689,521.607117 327.818176,521.391052 320.184204,520.859985 
z"/>
<path fill="#0C0A0B" opacity="1.000000" stroke="none" 
	d="
M356.720184,501.956512 
	C356.278076,497.230103 356.226288,492.473602 356.271454,487.365845 
	C359.787262,490.931366 360.174957,498.721954 356.720184,501.956512 
z"/>
<path fill="#0C0A0B" opacity="1.000000" stroke="none" 
	d="
M356.793732,232.089539 
	C356.287903,229.081238 356.210449,225.979355 356.224060,222.445206 
	C359.756195,223.630615 360.181793,228.314697 356.793732,232.089539 
z"/>
<path fill="#0C0A0B" opacity="1.000000" stroke="none" 
	d="
M356.644409,178.967529 
	C356.215149,175.297577 356.140228,171.608032 356.149658,167.465332 
	C358.402008,169.505020 358.873901,176.870316 356.644409,178.967529 
z"/>
<path fill="#0C0A0B" opacity="1.000000" stroke="none" 
	d="
M356.666168,189.961487 
	C356.226074,187.948196 356.163940,185.909210 356.192200,183.441376 
	C359.814575,184.651382 360.075653,187.024994 356.666168,189.961487 
z"/>
<path fill="#0C0A0B" opacity="1.000000" stroke="none" 
	d="
M356.512054,513.213989 
	C356.240479,510.645447 356.183228,508.266144 356.220428,505.450378 
	C356.813751,507.970398 357.313904,510.926666 357.795563,513.885925 
	C357.801025,513.919800 357.509369,514.073181 357.452972,514.033508 
	C357.192078,513.849976 356.965363,513.617859 356.512054,513.213989 
z"/>
<path fill="#0E0C0D" opacity="1.000000" stroke="none" 
	d="
M585.017822,349.850464 
	C585.840698,349.799255 586.695618,350.114014 587.791626,350.670258 
	C587.038391,350.679962 586.044128,350.448181 585.017822,349.850464 
z"/>
<path fill="#0C0A0B" opacity="1.000000" stroke="none" 
	d="
M356.483765,164.933624 
	C356.154175,164.547028 356.092834,164.105743 356.112915,163.337692 
	C356.659210,163.323410 357.124115,163.635895 357.589020,163.948380 
	C357.310028,164.258560 357.031067,164.568756 356.483765,164.933624 
z"/>
</svg>